<?xml version="1.0" encoding="UTF-8"?>
<svg id="Layer_1" data-name="Layer 1" xmlns="http://www.w3.org/2000/svg" viewBox="0 0 481.47 222.82">
  <defs>
    <style>
      .cls-1 {
        fill: #fff;
      }
    </style>
  </defs>
  <g>
    <path class="cls-1" d="m178.09,83.05c15.57-6.77,23.33-17.49,23.33-32.16,0-4.22-.75-8.31-2.24-12.13-1.5-3.82-3.67-7.3-6.46-10.45-2.79-3.22-6.05-5.83-9.72-7.84-4.28-2.48-9.18-4.16-14.62-5.02-5.44-.87-11.9-1.27-19.31-1.27h-50.39c-6.73,0-11.56,1.4-14.55,4.22-2.99,2.88-4.56,7.5-4.56,13.94v110.07c0,6.23,1.49,10.85,4.42,13.73,2.92,2.95,7.82,4.35,14.68,4.35h47.53c8.16,0,15.37-.4,21.49-1.14,6.19-.73,11.63-2.08,16.39-3.96,7.49-3.08,13.53-7.9,17.96-14.47,4.42-6.49,6.66-13.93,6.66-22.1,0-17.69-10.2-29.61-30.6-35.77m-66.98-46.7h25.57c2.58,0,5.03.06,7.34.2,7.82.4,13.87,1.6,18.23,3.48,5.57,2.41,8.36,7.37,8.36,14.74,0,3.48-.88,6.63-2.65,9.45-2.31,3.96-5.58,6.63-9.79,8.04-3.53,1.14-8.22,1.81-14.14,2.01-1.29.07-2.65.07-4.08.07h-28.83v-37.99Zm33.87,102.03h-33.87v-42.94h32.91c10.88,0,19.04,1.67,24.55,5.02,5.5,3.35,8.29,8.71,8.29,16.14,0,14.54-10.68,21.77-31.89,21.77"/>
    <path class="cls-1" d="m338.44,82.91c-2.66-6.84-6.53-12.66-11.7-17.62-5.1-4.89-11.22-8.71-18.36-11.32-7.14-2.68-15.03-4.02-23.73-4.02h-.2c-8.63,0-16.52,1.34-23.67,3.96-7.14,2.61-13.26,6.36-18.29,11.19-5.03,4.89-8.84,10.72-11.49,17.56-2.72,6.83-4.08,14.4-4.08,22.65s1.35,15.61,4.01,22.37c2.65,6.7,6.46,12.59,11.63,17.55,5.1,4.88,11.22,8.64,18.22,11.32,7,2.68,14.9,3.95,23.67,3.95h.2c8.77,0,16.66-1.27,23.73-3.88,7.07-2.61,13.19-6.43,18.29-11.26,5.1-4.89,8.97-10.79,11.7-17.62,2.65-6.83,4.01-14.34,4.01-22.44s-1.29-15.61-3.94-22.38m-32.98,48.1c-5.17,6.23-12.11,9.31-20.81,9.31h-.2c-5.78,0-10.82-1.41-15.1-4.22-4.29-2.81-7.54-6.83-9.86-12.2-2.31-5.29-3.47-11.45-3.47-18.62s1.16-13.4,3.54-18.76c2.31-5.36,5.64-9.45,9.93-12.19,4.35-2.75,9.32-4.15,14.96-4.15h.2c8.7.07,15.64,3.15,20.81,9.24,5.17,6.17,7.75,14.81,7.75,25.87s-2.58,19.56-7.75,25.72"/>
    <path class="cls-1" d="m422.35,149.17l-20.95-29.08-21.49,29.08c-3.13,4.09-5.78,7.03-7.89,8.78-2.18,1.67-4.89,2.54-8.23,2.54-3.67,0-6.79-1.06-9.38-3.21-2.59-2.14-3.88-4.62-3.88-7.43s1.97-6.9,5.92-12.26l26.18-35.31-23.19-29.35c-4.02-4.82-6.06-9.04-6.06-12.66,0-2.75,1.22-5.16,3.61-7.24,2.37-2.08,5.57-3.08,9.45-3.08,3.4,0,6.19.94,8.44,2.68,2.17,1.81,4.83,4.62,7.75,8.44l18.77,24.12,18.22-24.12c3.06-3.95,5.64-6.83,7.89-8.51,2.24-1.74,5.03-2.61,8.3-2.61,3.81,0,7,1.01,9.52,3.02,2.52,2.07,3.74,4.49,3.74,7.3,0,2.08-.48,4.08-1.57,5.96-1.02,1.87-2.58,4.09-4.69,6.7l-23.19,29.35,26.18,35.31c4.08,5.56,6.12,9.65,6.12,12.46s-1.23,5.29-3.81,7.37c-2.52,2.08-5.71,3.08-9.45,3.08-3.26,0-6.12-.87-8.37-2.68-2.31-1.8-4.96-4.69-7.95-8.64"/>
    <path class="cls-1" d="m57.52,61.13c-2.17,4.96-7.07,8.38-12.71,8.38s-10.54-3.42-12.79-8.38h-2.85v99.35h31.48V61.13h-3.13Z"/>
    <path class="cls-1" d="m60.17,46.53c0,8.98-7.07,16.21-15.71,16.21s-15.71-7.23-15.71-16.21,7-16.28,15.71-16.28,15.71,7.31,15.71,16.28"/>
  </g>
  <g>
    <path class="cls-1" d="m347.75,183.14c0,1.25-1.01,2.26-2.26,2.26s-2.26-1.01-2.26-2.26,1.01-2.26,2.26-2.26,2.26,1.01,2.26,2.26"/>
    <path class="cls-1" d="m306.56,189.84c-1.95,0-3.09,1.63-3.39,2.95,3.3.02,4.93-.42,4.93-1.75,0-.7-.59-1.19-1.55-1.19m3.7,10.7c-1.66.85-3.73,1.14-5.33,1.14-4.06,0-6.16-2.31-6.16-6.04,0-4.35,3.15-8.87,8.32-8.87,2.89,0,4.96,1.63,4.96,4.29,0,3.61-3.53,4.93-9.27,4.78.03.41.17,1.05.46,1.46.55.73,1.52,1.11,2.74,1.11,1.55,0,2.86-.35,4-.91l.29,3.03h-.01Z"/>
    <path class="cls-1" d="m312.95,201.35l1.61-8.49c.41-2.16.58-4.55.73-5.77h3.65c-.09.97-.15,1.92-.26,2.92h.09c1.02-1.9,2.59-3.24,4.55-3.24.26,0,.52,0,.79.03l-.82,4.08c-.21-.03-.44-.03-.67-.03-2.68,0-3.93,2.39-4.46,5.19l-.99,5.31h-4.22Z"/>
    <path class="cls-1" d="m334.04,190.07c-.32-.06-.7-.12-1.14-.12-2.71,0-4.7,3.32-4.7,5.98,0,1.4.56,2.36,1.72,2.36,1.25,0,2.8-1.43,3.47-4.93l.64-3.29h.01Zm-1.19,11.28c.03-.85.11-1.8.17-2.83h-.06c-1.31,2.36-3.15,3.15-4.81,3.15-2.57,0-4.31-1.99-4.31-4.96,0-4.81,3.2-9.94,10.2-9.94,1.72,0,3.53.32,4.73.7l-1.49,7.47c-.35,1.83-.64,4.63-.59,6.41h-3.85,0Z"/>
    <path class="cls-1" d="m346.96,187.09l-2.6,13.8c-.44,2.45-1.05,3.99-1.98,5.04-.93,1.05-2.42,1.52-3.91,1.52-.64,0-1.34-.06-1.98-.23l.46-3.15c.3.03.59.06.94.06.96,0,1.78-.5,2.24-3.06l2.65-13.97h4.18Z"/>
    <path class="cls-1" d="m358.1,190.07c-.32-.06-.7-.12-1.14-.12-2.71,0-4.7,3.32-4.7,5.98,0,1.4.56,2.36,1.72,2.36,1.26,0,2.81-1.43,3.47-4.93l.64-3.29h.01Zm-1.19,11.28c.03-.85.12-1.8.18-2.83h-.06c-1.31,2.36-3.15,3.15-4.81,3.15-2.57,0-4.32-1.99-4.32-4.96,0-4.81,3.21-9.94,10.21-9.94,1.72,0,3.53.32,4.72.7l-1.48,7.47c-.35,1.83-.64,4.63-.59,6.41h-3.85,0Z"/>
    <path class="cls-1" d="m369.01,187.09l.88,6.21c.2,1.49.35,2.51.47,3.41h.06c.32-.87.64-1.78,1.25-3.32l2.6-6.3h4.43l-5.11,10.27c-1.89,3.79-3.58,6.36-5.48,8.13-1.66,1.58-3.65,2.31-4.58,2.45l-.93-3.62c.67-.2,1.61-.55,2.42-1.11.96-.67,1.78-1.52,2.33-2.48.11-.23.11-.41.06-.7l-2.8-12.95h4.4,0Z"/>
    <path class="cls-1" d="m388.14,190.07c-.32-.06-.7-.12-1.14-.12-2.71,0-4.69,3.32-4.69,5.98,0,1.4.55,2.36,1.72,2.36,1.26,0,2.8-1.43,3.47-4.93l.64-3.29Zm-1.19,11.28c.03-.85.11-1.8.17-2.83h-.06c-1.31,2.36-3.15,3.15-4.81,3.15-2.56,0-4.32-1.99-4.32-4.96,0-4.81,3.21-9.94,10.21-9.94,1.72,0,3.53.32,4.73.7l-1.49,7.47c-.35,1.83-.64,4.63-.58,6.41h-3.85Z"/>
    <path class="cls-1" d="m188,200.26l1.21-6.56c.24-1.23.38-2.29.5-3.16h2.47l-.18,1.59h.04c.89-1.25,2.07-1.81,3.32-1.81,1.55,0,2.23.99,2.31,1.85.88-1.25,2.09-1.85,3.36-1.85,1.49,0,2.37.97,2.37,2.62,0,.4-.08,1.17-.16,1.67l-1.05,5.65h-2.78l.97-5.31c.08-.38.14-.8.14-1.17,0-.68-.3-1.15-.95-1.15-.95,0-1.91,1.27-2.29,3.24l-.82,4.4h-2.76l1.01-5.35c.06-.38.12-.76.12-1.09,0-.68-.22-1.19-.92-1.19-.97,0-1.99,1.35-2.33,3.26l-.81,4.38h-2.77v-.02Z"/>
    <path class="cls-1" d="m212.58,193.22c0-.48-.4-.81-1.05-.81-1.33,0-2.09,1.11-2.29,2.01,2.23.02,3.34-.28,3.34-1.17v-.02h0Zm1.47,6.45c-1.13.58-2.54.78-3.62.78-2.78,0-4.22-1.57-4.22-4.1,0-2.97,2.15-6.05,5.67-6.05,1.97,0,3.38,1.11,3.38,2.92,0,2.46-2.41,3.36-6.3,3.26,0,.28.1.72.3,1,.38.48,1.03.74,1.87.74,1.05,0,1.95-.24,2.72-.62l.2,2.07h0Z"/>
    <path class="cls-1" d="m217.28,200.26l1.21-6.56c.24-1.23.38-2.29.5-3.16h2.47l-.18,1.59h.04c.89-1.25,2.07-1.81,3.32-1.81,1.55,0,2.23.99,2.31,1.85.88-1.25,2.09-1.85,3.36-1.85,1.49,0,2.37.97,2.37,2.62,0,.4-.08,1.17-.16,1.67l-1.05,5.65h-2.78l.97-5.31c.08-.38.14-.8.14-1.17,0-.68-.3-1.15-.96-1.15-.95,0-1.91,1.27-2.29,3.24l-.81,4.4h-2.76l1.01-5.35c.06-.38.12-.76.12-1.09,0-.68-.22-1.19-.92-1.19-.97,0-1.99,1.35-2.33,3.26l-.81,4.38h-2.77v-.02Z"/>
    <path class="cls-1" d="m238.72,196.16c-.06.32-.12.68-.1,1.07.02.7.42,1.07,1.09,1.07,1.67,0,2.84-2.31,2.84-4,0-.96-.4-1.67-1.27-1.67-1.04,0-2.05,1.04-2.39,2.73l-.18.8h.01Zm2.01-10.02l-1.15,5.57h.04c.72-.85,1.81-1.39,3-1.39,2.03,0,2.94,1.67,2.94,3.4,0,3.14-2.07,6.76-6.45,6.76-2.31,0-3.46-1-3.46-2.72,0-.6.1-1.19.22-1.77l1.97-9.84h2.89Z"/>
    <path class="cls-1" d="m254.39,193.22c0-.48-.4-.81-1.05-.81-1.33,0-2.09,1.11-2.29,2.01,2.23.02,3.34-.28,3.34-1.17v-.02h0Zm1.47,6.45c-1.13.58-2.54.78-3.62.78-2.78,0-4.22-1.57-4.22-4.1,0-2.97,2.15-6.05,5.67-6.05,1.97,0,3.38,1.11,3.38,2.92,0,2.46-2.41,3.36-6.31,3.26,0,.28.1.72.3,1,.38.48,1.03.74,1.87.74,1.05,0,1.95-.24,2.72-.62l.2,2.07h0Z"/>
    <path class="cls-1" d="m259.09,200.26l1.09-5.79c.28-1.47.4-3.1.5-3.94h2.49c-.06.66-.1,1.31-.18,2.01h.06c.69-1.31,1.77-2.23,3.1-2.23.18,0,.38.02.54.02l-.56,2.8c-.12-.02-.28-.02-.46-.02-1.81,0-2.69,1.61-3.04,3.52l-.68,3.62h-2.86Z"/>
    <path class="cls-1" d="m277.77,198.29c1.53,0,2.43-2.29,2.43-3.94,0-.91-.4-1.85-1.53-1.85-1.65,0-2.47,2.38-2.47,3.9,0,1.13.56,1.89,1.55,1.89h.02Zm-.42,2.19c-2.47,0-4.12-1.61-4.12-4.02,0-3.36,2.35-6.14,5.81-6.14,2.6,0,4.12,1.79,4.12,4.02,0,3.54-2.45,6.15-5.79,6.15h-.02Z"/>
    <path class="cls-1" d="m285.72,200.26l1.43-7.54h-1.25l.4-2.19h1.27l.08-.5c.22-1.17.68-2.39,1.65-3.2.79-.66,1.83-.92,2.78-.92.68,0,1.19.1,1.51.24l-.5,2.27c-.26-.1-.56-.16-.91-.16-.93,0-1.51.82-1.69,1.79l-.08.48h1.91l-.42,2.19h-1.89l-1.43,7.54h-2.86,0Z"/>
    <path class="cls-1" d="m407.72,192.68c-.22-.1-.64-.18-1.03-.18-1.73,0-2.96,1.93-2.96,3.76,0,1,.44,1.71,1.31,1.71.93,0,1.87-1.05,2.19-2.68l.5-2.61h-.01Zm-6.68,8.93c.54.32,1.71.54,2.54.54,1.43,0,2.49-.64,2.91-2.59l.16-.84h-.04c-.76.99-1.63,1.45-2.78,1.45-1.93,0-3.1-1.57-3.12-3.48-.02-3.2,2.29-6.38,6.52-6.38,1.37,0,2.57.26,3.6.68l-1.47,8.01c-.34,1.79-.89,3.38-2.05,4.31-1.05.84-2.46,1.09-3.76,1.09s-2.51-.24-3.18-.61l.68-2.19h-.01Z"/>
    <path class="cls-1" d="m412.89,200.26l1.09-5.79c.28-1.47.4-3.1.5-3.94h2.49c-.06.66-.1,1.31-.18,2.01h.06c.7-1.31,1.77-2.23,3.1-2.23.18,0,.38.02.54.02l-.56,2.8c-.12-.02-.28-.02-.46-.02-1.81,0-2.68,1.61-3.04,3.52l-.68,3.62h-2.87,0Z"/>
    <path class="cls-1" d="m426.52,198.29c1.53,0,2.43-2.29,2.43-3.94,0-.91-.4-1.85-1.53-1.85-1.65,0-2.46,2.38-2.46,3.9,0,1.13.56,1.89,1.55,1.89h.02,0Zm-.42,2.19c-2.46,0-4.12-1.61-4.12-4.02,0-3.36,2.35-6.14,5.81-6.14,2.61,0,4.12,1.79,4.12,4.02,0,3.54-2.45,6.15-5.79,6.15h-.02Z"/>
    <path class="cls-1" d="m444.72,190.53l-1.23,6.56c-.24,1.23-.4,2.29-.54,3.16h-2.53l.18-1.57-.04-.02c-.99,1.27-2.17,1.81-3.34,1.81-1.57,0-2.5-.88-2.5-2.72,0-.52.06-1.11.2-1.79l1.03-5.43h2.86l-1,5.21c-.08.46-.14.93-.14,1.29,0,.62.26,1.12.97,1.12.98,0,1.99-1.17,2.35-3.1l.85-4.51h2.88Z"/>
    <path class="cls-1" d="m449.99,197.85c.32.28.74.46,1.31.46,1.53,0,2.72-2.17,2.72-4.08,0-.78-.34-1.59-1.25-1.59-1.07,0-2.07,1.2-2.43,3.1l-.36,2.11h0Zm-4.1,6.34l1.89-9.9c.22-1.15.44-2.85.56-3.84h2.57l-.18,1.49h.04c.8-1.05,1.95-1.63,3.12-1.63,2.11,0,3.14,1.69,3.14,3.7,0,3.36-2.25,6.46-5.65,6.46-.78,0-1.45-.2-1.79-.4h-.06l-.77,4.12h-2.87Z"/>
  </g>
</svg>